<svg viewBox="0 0 600 800" xmlns="http://www.w3.org/2000/svg" role="presentation">
  <defs>
    <linearGradient id="bg" x1="0" y1="0" x2="0.35" y2="1">
      <stop offset="0" stop-color="#4a6741"/>
      <stop offset="1" stop-color="#283823"/>
    </linearGradient>
    <radialGradient id="vig" cx="0.5" cy="0.42" r="0.78">
      <stop offset="0.55" stop-color="#000000" stop-opacity="0"/>
      <stop offset="1" stop-color="#000000" stop-opacity="0.34"/>
    </radialGradient>
    <pattern id="grain" width="4" height="4" patternUnits="userSpaceOnUse"><rect width="1.5" height="4" fill="black" opacity="0.11"/></pattern>
  </defs>
  <rect width="600" height="800" fill="url(#bg)"/>
  <rect width="600" height="800" fill="url(#grain) none"/>
  <rect width="600" height="800" fill="url(#vig)"/>
  <g transform="translate(240 520) scale(2.50000)">
		<rect x="6" y="31" width="20" height="11" rx="1.5" fill="#5f4227"/>
		<rect x="6" y="31" width="20" height="3.2" fill="#8a6440"/>
		<rect x="8.5" y="34.5" width="15" height="6" fill="#f3e2c4"/>
		<path d="M16 34.5v6" stroke="#e0c69a" stroke-width="1"/>
		<rect x="30" y="20" width="6.5" height="19" rx="1" fill="#f3e2c4"/>
		<rect x="30" y="20" width="2.4" height="19" fill="#e0c69a"/>
		<rect x="28.5" y="38.5" width="9.5" height="3.5" rx="1.2" fill="#a97a24"/>
		<path d="M33.2 20v-4" stroke="#5f4227" stroke-width="1.3"/>
		<path d="M33.2 8c1.7 2 2.4 3.3 2.4 5a2.4 2.4 0 0 1-4.8 0c0-1.7.7-3 2.4-5z" fill="#d95f43"/>
		<path d="M33.2 12c.8 1 1.1 1.7 1.1 2.6a1.1 1.1 0 0 1-2.2 0c0-.9.3-1.6 1.1-2.6z" fill="#d9a441"/></g>
</svg>
